<?xml version="1.0" encoding="UTF-8" standalone="no"?>
<!-- Created with Inkscape (http://www.inkscape.org/) -->

<svg
   xmlns:dc="http://purl.org/dc/elements/1.1/"
   xmlns:cc="http://creativecommons.org/ns#"
   xmlns:rdf="http://www.w3.org/1999/02/22-rdf-syntax-ns#"
   xmlns:svg="http://www.w3.org/2000/svg"
   xmlns="http://www.w3.org/2000/svg"
   xmlns:sodipodi="http://sodipodi.sourceforge.net/DTD/sodipodi-0.dtd"
   xmlns:inkscape="http://www.inkscape.org/namespaces/inkscape"
   id="svg2"
   version="1.1"
   inkscape:version="0.48.2 r9819"
   width="477.79562"
   height="278.81171"
   xml:space="preserve"
   sodipodi:docname="Compare Repositories - Ohloh.pdf"><metadata
     id="metadata8"><rdf:RDF><cc:Work
         rdf:about=""><dc:format>image/svg+xml</dc:format><dc:type
           rdf:resource="http://purl.org/dc/dcmitype/StillImage" /><dc:title></dc:title></cc:Work></rdf:RDF></metadata><defs
     id="defs6"><clipPath
       clipPathUnits="userSpaceOnUse"
       id="clipPath30"><path
         d="M 0,0 539,0 539,755 0,755 0,0 z"
         id="path32"
         inkscape:connector-curvature="0" /></clipPath><clipPath
       clipPathUnits="userSpaceOnUse"
       id="clipPath38"><path
         d="m 0,0 539,0 0,754.4758 -539,0 L 0,0 z"
         id="path40"
         inkscape:connector-curvature="0" /></clipPath><clipPath
       clipPathUnits="userSpaceOnUse"
       id="clipPath2740"><path
         d="m 0,0 539,0 0,754.4758 -539,0 L 0,0 z"
         id="path2742"
         inkscape:connector-curvature="0" /></clipPath><clipPath
       clipPathUnits="userSpaceOnUse"
       id="clipPath2746"><path
         d="M 4.9677,0 539,0 l 0,296.8225 -534.0323,0 L 4.9677,0 z"
         id="path2748"
         inkscape:connector-curvature="0" /></clipPath><clipPath
       clipPathUnits="userSpaceOnUse"
       id="clipPath2752"><path
         d="m 4.9677,-1.2419 534.0323,0 0,298.0645 -534.0323,0 0,-298.0645 z"
         id="path2754"
         inkscape:connector-curvature="0" /></clipPath><clipPath
       clipPathUnits="userSpaceOnUse"
       id="clipPath2778"><path
         d="m 0,0 539,0 0,754.4758 -539,0 L 0,0 z"
         id="path2780"
         inkscape:connector-curvature="0" /></clipPath><clipPath
       clipPathUnits="userSpaceOnUse"
       id="clipPath2784"><path
         d="M 4.9677,0 539,0 l 0,296.8225 -534.0323,0 L 4.9677,0 z"
         id="path2786"
         inkscape:connector-curvature="0" /></clipPath><clipPath
       clipPathUnits="userSpaceOnUse"
       id="clipPath2790"><path
         d="m 4.9677,-1.2419 534.0323,0 0,298.0645 -534.0323,0 0,-298.0645 z"
         id="path2792"
         inkscape:connector-curvature="0" /></clipPath><clipPath
       clipPathUnits="userSpaceOnUse"
       id="clipPath2862"><path
         d="m 0,0 539,0 0,754.4758 -539,0 L 0,0 z"
         id="path2864"
         inkscape:connector-curvature="0" /></clipPath><clipPath
       clipPathUnits="userSpaceOnUse"
       id="clipPath2868"><path
         d="M 4.9677,0 539,0 l 0,296.8225 -534.0323,0 L 4.9677,0 z"
         id="path2870"
         inkscape:connector-curvature="0" /></clipPath><clipPath
       clipPathUnits="userSpaceOnUse"
       id="clipPath2874"><path
         d="m 4.9677,-1.2419 534.0323,0 0,298.0645 -534.0323,0 0,-298.0645 z"
         id="path2876"
         inkscape:connector-curvature="0" /></clipPath></defs><sodipodi:namedview
     pagecolor="#ffffff"
     bordercolor="#666666"
     borderopacity="1"
     objecttolerance="10"
     gridtolerance="10"
     guidetolerance="10"
     inkscape:pageopacity="0"
     inkscape:pageshadow="2"
     inkscape:window-width="1920"
     inkscape:window-height="1056"
     id="namedview4"
     showgrid="false"
     fit-margin-top="0"
     fit-margin-left="0"
     fit-margin-right="0"
     fit-margin-bottom="0"
     inkscape:zoom="1.7959572"
     inkscape:cx="308.45273"
     inkscape:cy="110.57464"
     inkscape:window-x="0"
     inkscape:window-y="24"
     inkscape:window-maximized="1"
     inkscape:current-layer="g2860" /><g
     id="g10"
     inkscape:groupmode="layer"
     inkscape:label="Compare Repositories - Ohloh"
     transform="matrix(1.25,0,0,1.25,-110.18729,-33.10265)"><g
       id="g2776"
       clip-path="url(#clipPath2778)"><g
         id="g2782"
         clip-path="url(#clipPath2784)"><g
           id="g2788"
           clip-path="url(#clipPath2790)"><g
             id="g2794"
             transform="matrix(0.621,0,0,0.621,11.7984,5.5887)"><path
               d="m 419.9654,56.625 c 1.4156,-3e-4 2.8311,0.0171 4.2462,0.0522 L 420,226.5 l 0,0 -0.0346,-169.875 z"
               style="fill:none;stroke:#000000;stroke-width:1;stroke-linecap:butt;stroke-linejoin:miter;stroke-miterlimit:10;stroke-opacity:0.04709999;stroke-dasharray:none"
               id="path2796"
               inkscape:connector-curvature="0" /><path
               d="m 419.9654,56.625 c 1.4156,-3e-4 2.8311,0.0171 4.2462,0.0522 L 420,226.5 l 0,0 -0.0346,-169.875 z"
               style="fill:none;stroke:#000000;stroke-width:1;stroke-linecap:butt;stroke-linejoin:miter;stroke-miterlimit:10;stroke-opacity:0.09800002;stroke-dasharray:none"
               id="path2798"
               inkscape:connector-curvature="0" /><path
               d="m 419.9654,56.625 c 1.4156,-3e-4 2.8311,0.0171 4.2462,0.0522 L 420,226.5 l 0,0 -0.0346,-169.875 z"
               style="fill:none;stroke:#000000;stroke-width:1;stroke-linecap:butt;stroke-linejoin:miter;stroke-miterlimit:10;stroke-opacity:0.14510001;stroke-dasharray:none"
               id="path2800"
               inkscape:connector-curvature="0" /><path
               d="m 424.2119,56.6772 c 48.7947,1.2102 94.7113,23.3506 126.0433,60.7765 L 420,226.5 l 0,0 4.2119,-169.8228 z"
               style="fill:none;stroke:#000000;stroke-width:1;stroke-linecap:butt;stroke-linejoin:miter;stroke-miterlimit:10;stroke-opacity:0.04709999;stroke-dasharray:none"
               id="path2802"
               inkscape:connector-curvature="0" /><path
               d="m 424.2119,56.6772 c 48.7947,1.2102 94.7113,23.3506 126.0433,60.7765 L 420,226.5 l 0,0 4.2119,-169.8228 z"
               style="fill:none;stroke:#000000;stroke-width:1;stroke-linecap:butt;stroke-linejoin:miter;stroke-miterlimit:10;stroke-opacity:0.09800002;stroke-dasharray:none"
               id="path2804"
               inkscape:connector-curvature="0" /><path
               d="m 424.2119,56.6772 c 48.7947,1.2102 94.7113,23.3506 126.0433,60.7765 L 420,226.5 l 0,0 4.2119,-169.8228 z"
               style="fill:none;stroke:#000000;stroke-width:1;stroke-linecap:butt;stroke-linejoin:miter;stroke-miterlimit:10;stroke-opacity:0.14510001;stroke-dasharray:none"
               id="path2806"
               inkscape:connector-curvature="0" /><path
               d="m 550.2553,117.4538 c 30.3634,36.2689 44.2299,83.5552 38.2623,130.478 -5.9676,46.9229 -31.2288,89.2329 -69.7041,116.7471 L 420,226.5 l 0,0 130.2553,-109.0462 z"
               style="fill:none;stroke:#000000;stroke-width:1;stroke-linecap:butt;stroke-linejoin:miter;stroke-miterlimit:10;stroke-opacity:0.04709999;stroke-dasharray:none"
               id="path2808"
               inkscape:connector-curvature="0" /><path
               d="m 550.2553,117.4538 c 30.3634,36.2689 44.2299,83.5552 38.2623,130.478 -5.9676,46.9229 -31.2288,89.2329 -69.7041,116.7471 L 420,226.5 l 0,0 130.2553,-109.0462 z"
               style="fill:none;stroke:#000000;stroke-width:1;stroke-linecap:butt;stroke-linejoin:miter;stroke-miterlimit:10;stroke-opacity:0.09800002;stroke-dasharray:none"
               id="path2810"
               inkscape:connector-curvature="0" /><path
               d="m 550.2553,117.4538 c 30.3634,36.2689 44.2299,83.5552 38.2623,130.478 -5.9676,46.9229 -31.2288,89.2329 -69.7041,116.7471 L 420,226.5 l 0,0 130.2553,-109.0462 z"
               style="fill:none;stroke:#000000;stroke-width:1;stroke-linecap:butt;stroke-linejoin:miter;stroke-miterlimit:10;stroke-opacity:0.14510001;stroke-dasharray:none"
               id="path2812"
               inkscape:connector-curvature="0" /><path
               d="m 518.8134,364.679 c -6.5893,4.7121 -13.5072,8.9467 -20.7008,12.6717 L 420,226.5 l 0,0 98.8134,138.179 z"
               style="fill:none;stroke:#000000;stroke-width:1;stroke-linecap:butt;stroke-linejoin:miter;stroke-miterlimit:10;stroke-opacity:0.04709999;stroke-dasharray:none"
               id="path2814"
               inkscape:connector-curvature="0" /><path
               d="m 518.8134,364.679 c -6.5893,4.7121 -13.5072,8.9467 -20.7008,12.6717 L 420,226.5 l 0,0 98.8134,138.179 z"
               style="fill:none;stroke:#000000;stroke-width:1;stroke-linecap:butt;stroke-linejoin:miter;stroke-miterlimit:10;stroke-opacity:0.09800002;stroke-dasharray:none"
               id="path2816"
               inkscape:connector-curvature="0" /><path
               d="m 518.8134,364.679 c -6.5893,4.7121 -13.5072,8.9467 -20.7008,12.6717 L 420,226.5 l 0,0 98.8134,138.179 z"
               style="fill:none;stroke:#000000;stroke-width:1;stroke-linecap:butt;stroke-linejoin:miter;stroke-miterlimit:10;stroke-opacity:0.14510001;stroke-dasharray:none"
               id="path2818"
               inkscape:connector-curvature="0" /><path
               d="M 498.1125,377.3508 C 435.5453,409.7489 359.4729,400.1614 306.9008,353.2521 254.3288,306.3428 236.1707,231.8499 261.2596,166.0103 286.3485,100.1707 349.476,56.6525 419.9337,56.625 L 420,226.5 l 0,0 78.1125,150.8508 z"
               style="fill:none;stroke:#000000;stroke-width:1;stroke-linecap:butt;stroke-linejoin:miter;stroke-miterlimit:10;stroke-opacity:0.04709999;stroke-dasharray:none"
               id="path2820"
               inkscape:connector-curvature="0" /><path
               d="M 498.1125,377.3508 C 435.5453,409.7489 359.4729,400.1614 306.9008,353.2521 254.3288,306.3428 236.1707,231.8499 261.2596,166.0103 286.3485,100.1707 349.476,56.6525 419.9337,56.625 L 420,226.5 l 0,0 78.1125,150.8508 z"
               style="fill:none;stroke:#000000;stroke-width:1;stroke-linecap:butt;stroke-linejoin:miter;stroke-miterlimit:10;stroke-opacity:0.09800002;stroke-dasharray:none"
               id="path2822"
               inkscape:connector-curvature="0" /><path
               d="M 498.1125,377.3508 C 435.5453,409.7489 359.4729,400.1614 306.9008,353.2521 254.3288,306.3428 236.1707,231.8499 261.2596,166.0103 286.3485,100.1707 349.476,56.6525 419.9337,56.625 L 420,226.5 l 0,0 78.1125,150.8508 z"
               style="fill:none;stroke:#000000;stroke-width:1;stroke-linecap:butt;stroke-linejoin:miter;stroke-miterlimit:10;stroke-opacity:0.14510001;stroke-dasharray:none"
               id="path2824"
               inkscape:connector-curvature="0" /></g><g
             id="g2826"
             transform="matrix(0.621,0,0,0.621,11.1774,4.9677)"><path
               d="m 419.9654,56.625 c 1.4156,-3e-4 2.8311,0.0171 4.2462,0.0522 L 420,226.5 l 0,0 -0.0346,-169.875 z"
               style="fill:#4572a7;fill-opacity:1;fill-rule:nonzero;stroke:none"
               id="path2828"
               inkscape:connector-curvature="0" /><path
               d="m 419.9654,56.625 c 1.4156,-3e-4 2.8311,0.0171 4.2462,0.0522 L 420,226.5 l 0,0 -0.0346,-169.875 z"
               style="fill:none;stroke:#ffffff;stroke-width:1;stroke-linecap:butt;stroke-linejoin:miter;stroke-miterlimit:10;stroke-opacity:1;stroke-dasharray:none"
               id="path2830"
               inkscape:connector-curvature="0" /><path
               d="m 419.9654,56.625 c 1.4156,-3e-4 2.8311,0.0171 4.2462,0.0522 L 420,226.5 l 0,0 -0.0346,-169.875 z"
               style="fill:#c0c0c0;fill-opacity:0;fill-rule:nonzero;stroke:none"
               id="path2832"
               inkscape:connector-curvature="0" /><path
               d="m 424.2119,56.6772 c 48.7947,1.2102 94.7113,23.3506 126.0433,60.7765 L 420,226.5 l 0,0 4.2119,-169.8228 z"
               style="fill:#aa4643;fill-opacity:1;fill-rule:nonzero;stroke:none"
               id="path2834"
               inkscape:connector-curvature="0" /><path
               d="m 424.2119,56.6772 c 48.7947,1.2102 94.7113,23.3506 126.0433,60.7765 L 420,226.5 l 0,0 4.2119,-169.8228 z"
               style="fill:none;stroke:#ffffff;stroke-width:1;stroke-linecap:butt;stroke-linejoin:miter;stroke-miterlimit:10;stroke-opacity:1;stroke-dasharray:none"
               id="path2836"
               inkscape:connector-curvature="0" /><path
               d="m 424.2119,56.6772 c 48.7947,1.2102 94.7113,23.3506 126.0433,60.7765 L 420,226.5 l 0,0 4.2119,-169.8228 z"
               style="fill:#c0c0c0;fill-opacity:0;fill-rule:nonzero;stroke:none"
               id="path2838"
               inkscape:connector-curvature="0" /><path
               d="m 550.2553,117.4538 c 30.3634,36.2689 44.2299,83.5552 38.2623,130.478 -5.9676,46.9229 -31.2288,89.2329 -69.7041,116.7471 L 420,226.5 l 0,0 130.2553,-109.0462 z"
               style="fill:#89a54e;fill-opacity:1;fill-rule:nonzero;stroke:none"
               id="path2840"
               inkscape:connector-curvature="0" /><path
               d="m 550.2553,117.4538 c 30.3634,36.2689 44.2299,83.5552 38.2623,130.478 -5.9676,46.9229 -31.2288,89.2329 -69.7041,116.7471 L 420,226.5 l 0,0 130.2553,-109.0462 z"
               style="fill:none;stroke:#ffffff;stroke-width:1;stroke-linecap:butt;stroke-linejoin:miter;stroke-miterlimit:10;stroke-opacity:1;stroke-dasharray:none"
               id="path2842"
               inkscape:connector-curvature="0" /><path
               d="m 550.2553,117.4538 c 30.3634,36.2689 44.2299,83.5552 38.2623,130.478 -5.9676,46.9229 -31.2288,89.2329 -69.7041,116.7471 L 420,226.5 l 0,0 130.2553,-109.0462 z"
               style="fill:#c0c0c0;fill-opacity:0;fill-rule:nonzero;stroke:none"
               id="path2844"
               inkscape:connector-curvature="0" /><path
               d="m 518.8134,364.679 c -6.5893,4.7121 -13.5072,8.9467 -20.7008,12.6717 L 420,226.5 l 0,0 98.8134,138.179 z"
               style="fill:#80699b;fill-opacity:1;fill-rule:nonzero;stroke:none"
               id="path2846"
               inkscape:connector-curvature="0" /><path
               d="m 518.8134,364.679 c -6.5893,4.7121 -13.5072,8.9467 -20.7008,12.6717 L 420,226.5 l 0,0 98.8134,138.179 z"
               style="fill:none;stroke:#ffffff;stroke-width:1;stroke-linecap:butt;stroke-linejoin:miter;stroke-miterlimit:10;stroke-opacity:1;stroke-dasharray:none"
               id="path2848"
               inkscape:connector-curvature="0" /><path
               d="m 518.8134,364.679 c -6.5893,4.7121 -13.5072,8.9467 -20.7008,12.6717 L 420,226.5 l 0,0 98.8134,138.179 z"
               style="fill:#c0c0c0;fill-opacity:0;fill-rule:nonzero;stroke:none"
               id="path2850"
               inkscape:connector-curvature="0" /><path
               d="M 498.1125,377.3508 C 435.5453,409.7489 359.4729,400.1614 306.9008,353.2521 254.3288,306.3428 236.1707,231.8499 261.2596,166.0103 286.3485,100.1707 349.476,56.6525 419.9337,56.625 L 420,226.5 l 0,0 78.1125,150.8508 z"
               style="fill:#3d96ae;fill-opacity:1;fill-rule:nonzero;stroke:none"
               id="path2852"
               inkscape:connector-curvature="0" /><path
               d="M 498.1125,377.3508 C 435.5453,409.7489 359.4729,400.1614 306.9008,353.2521 254.3288,306.3428 236.1707,231.8499 261.2596,166.0103 286.3485,100.1707 349.476,56.6525 419.9337,56.625 L 420,226.5 l 0,0 78.1125,150.8508 z"
               style="fill:none;stroke:#ffffff;stroke-width:1;stroke-linecap:butt;stroke-linejoin:miter;stroke-miterlimit:10;stroke-opacity:1;stroke-dasharray:none"
               id="path2854"
               inkscape:connector-curvature="0" /><path
               d="M 498.1125,377.3508 C 435.5453,409.7489 359.4729,400.1614 306.9008,353.2521 254.3288,306.3428 236.1707,231.8499 261.2596,166.0103 286.3485,100.1707 349.476,56.6525 419.9337,56.625 L 420,226.5 l 0,0 78.1125,150.8508 z"
               style="fill:#c0c0c0;fill-opacity:0;fill-rule:nonzero;stroke:none"
               id="path2856"
               inkscape:connector-curvature="0" /></g></g></g></g><g
       id="g2860"
       clip-path="url(#clipPath2862)"><text
         id="text2888"
         x="289.04865"
         y="24.616201"
         style="font-size:7.45200014px"><tspan
           id="tspan2890"
           y="24.616201"
           x="289.04865"
           style="font-size:6.83099985px;font-variant:normal;font-weight:bold;writing-mode:lr-tb;fill:#000000;fill-opacity:1;fill-rule:nonzero;stroke:none;font-family:Verdana;-inkscape-font-specification:Verdana-Bold"></tspan></text>
<text
         id="text2904"
         x="307.05762"
         y="24.616201"
         style="font-size:7.45200014px"><tspan
           id="tspan2906"
           y="24.616201"
           x="307.05762"
           style="font-size:6.83099985px;font-variant:normal;font-weight:normal;writing-mode:lr-tb;fill:#000000;fill-opacity:1;fill-rule:nonzero;stroke:none;font-family:Verdana;-inkscape-font-specification:Verdana"></tspan></text>
<text
         id="text2928"
         x="348.8847"
         y="36.925602"
         style="font-size:7.45200014px"><tspan
           id="tspan2930"
           y="36.925602"
           x="348.8847"
           style="font-size:6.83099985px;font-variant:normal;font-weight:normal;writing-mode:lr-tb;fill:#000000;fill-opacity:1;fill-rule:nonzero;stroke:none;font-family:Verdana;-inkscape-font-specification:Verdana"></tspan></text>
<text
         id="text2992"
         x="450.39697"
         y="164.38882"
         style="font-size:7.45200014px"><tspan
           id="tspan2994"
           y="164.38882"
           x="450.39697"
           style="font-size:6.83099985px;font-variant:normal;font-weight:bold;writing-mode:lr-tb;fill:#000000;fill-opacity:1;fill-rule:nonzero;stroke:none;font-family:Verdana;-inkscape-font-specification:Verdana-Bold"></tspan></text>
<text
         id="text2996"
         x="456.60699"
         y="164.38882"
         style="font-size:7.45200014px"><tspan
           id="tspan2998"
           y="164.38882"
           x="456.60699"
           style="font-size:6.83099985px;font-variant:normal;font-weight:normal;writing-mode:lr-tb;fill:#000000;fill-opacity:1;fill-rule:nonzero;stroke:none;font-family:Verdana;-inkscape-font-specification:Verdana"></tspan></text>
<text
         id="text3048"
         x="379.64911"
         y="254.59219"
         style="font-size:7.45200014px"><tspan
           id="tspan3050"
           y="254.59219"
           x="379.64911"
           style="font-size:6.83099985px;font-variant:normal;font-weight:normal;writing-mode:lr-tb;fill:#000000;fill-opacity:1;fill-rule:nonzero;stroke:none;font-family:Verdana;-inkscape-font-specification:Verdana"></tspan></text>
<text
         id="text3100"
         x="123.46091"
         y="178.12399"
         style="font-size:7.45200014px"><tspan
           id="tspan3102"
           y="178.12399"
           x="123.46091"
           style="font-size:6.83099985px;font-variant:normal;font-weight:normal;writing-mode:lr-tb;fill:#000000;fill-opacity:1;fill-rule:nonzero;stroke:none;font-family:Verdana;-inkscape-font-specification:Verdana"></tspan></text>
<text
         xml:space="preserve"
         style="font-size:38.40000153px;font-style:normal;font-weight:normal;line-height:125%;letter-spacing:0px;word-spacing:0px;fill:#000000;fill-opacity:1;stroke:none;font-family:Sans"
         x="85.618584"
         y="223.06898"
         id="text11040"
         sodipodi:linespacing="125%"><tspan
           sodipodi:role="line"
           id="tspan11042"
           x="85.618584"
           y="223.06898">SVN - 57%</tspan></text>
<text
         xml:space="preserve"
         style="font-size:12.80000019px;font-style:normal;font-weight:normal;line-height:125%;letter-spacing:0px;word-spacing:0px;fill:#000000;fill-opacity:1;stroke:none;font-family:Sans"
         x="235.9153"
         y="35.982121"
         id="text11044"
         sodipodi:linespacing="125%"><tspan
           sodipodi:role="line"
           id="tspan11046"
           x="235.9153"
           y="35.982121">Bazaar - 0%</tspan></text>
<text
         xml:space="preserve"
         style="font-size:12.80000019px;font-style:normal;font-weight:normal;line-height:125%;letter-spacing:0px;word-spacing:0px;fill:#000000;fill-opacity:1;stroke:none;font-family:Sans"
         x="331.94965"
         y="54.690811"
         id="text11048"
         sodipodi:linespacing="125%"><tspan
           sodipodi:role="line"
           id="tspan11050"
           x="331.94965"
           y="54.690811">CVS - 13%</tspan></text>
<text
         xml:space="preserve"
         style="font-size:19.20000076px;font-style:normal;font-weight:normal;line-height:125%;letter-spacing:0px;word-spacing:0px;fill:#000000;fill-opacity:1;stroke:none;font-family:Sans"
         x="381.83945"
         y="165.16115"
         id="text11052"
         sodipodi:linespacing="125%"><tspan
           sodipodi:role="line"
           id="tspan11054"
           x="381.83945"
           y="165.16115">Git - 26%</tspan></text>
<text
         xml:space="preserve"
         style="font-size:12.80000019px;font-style:normal;font-weight:normal;line-height:125%;letter-spacing:0px;word-spacing:0px;fill:#000000;fill-opacity:1;stroke:none;font-family:Sans"
         x="325.71341"
         y="249.35023"
         id="text11056"
         sodipodi:linespacing="125%"><tspan
           sodipodi:role="line"
           id="tspan11058"
           x="325.71341"
           y="249.35023">Mercurial - 2%</tspan></text>
</g></g></svg>